HIERARCHY
ROOT hip
{
  OFFSET 0 0 0
  CHANNELS 6 Xposition Yposition Zposition Zrotation Yrotation Xrotation
  JOINT abdomen
  {
    OFFSET 0 20.6881 -0.73152
    CHANNELS 3 Zrotation Xrotation Yrotation
    JOINT chest
    {
      OFFSET 0 11.7043 -0.48768
      CHANNELS 3 Zrotation Xrotation Yrotation
      JOINT neck
      {
        OFFSET 0 22.1894 -2.19456
        CHANNELS 3 Zrotation Xrotation Yrotation
        JOINT head
        {
          OFFSET -0.24384 7.07133 1.2192
          CHANNELS 3 Zrotation Xrotation Yrotation
          JOINT leftEye
          {
            OFFSET 4.14528 8.04674 8.04672
            CHANNELS 3 Zrotation Xrotation Yrotation
            End Site
            {
              OFFSET 1 0 0
            }
          }
          JOINT rightEye
          {
            OFFSET -3.6576 8.04674 8.04672
            CHANNELS 3 Zrotation Xrotation Yrotation
            End Site
            {
              OFFSET 1 0 0
            }
          }
        }
      }
      JOINT rCollar
      {
        OFFSET -2.68224 19.2634 -4.8768
        CHANNELS 3 Zrotation Xrotation Yrotation
        JOINT rShldr
        {
          OFFSET -8.77824 -1.95073 1.46304
          CHANNELS 3 Zrotation Xrotation Yrotation
          JOINT rForeArm
          {
            OFFSET -28.1742 -1.7115 0.48768
            CHANNELS 3 Zrotation Xrotation Yrotation
            JOINT rHand
            {
              OFFSET -22.5879 0.773209 7.07136
              CHANNELS 3 Zrotation Xrotation Yrotation
              JOINT rThumb1
              {
                OFFSET -1.2192 -0.487915 3.41376
                CHANNELS 3 Zrotation Xrotation Yrotation
                JOINT rThumb2
                {
                  OFFSET -3.37035 -0.52449 3.41376
                  CHANNELS 3 Zrotation Xrotation Yrotation
                  End Site
                  {
                    OFFSET -1.78271 -1.18214 1.43049
                  }
                }
              }
              JOINT rIndex1
              {
                OFFSET -7.75947 0.938293 5.60832
                CHANNELS 3 Zrotation Xrotation Yrotation
                JOINT rIndex2
                {
                  OFFSET -2.54057 -0.884171 1.56538
                  CHANNELS 3 Zrotation Xrotation Yrotation
                  End Site
                  {
                    OFFSET -1.62519 -0.234802 1.16502
                  }
                }
              }
              JOINT rMid1
              {
                OFFSET -8.24714 1.18213 3.41376
                CHANNELS 3 Zrotation Xrotation Yrotation
                JOINT rMid2
                {
                  OFFSET -3.10165 -0.590103 1.0647
                  CHANNELS 3 Zrotation Xrotation Yrotation
                  End Site
                  {
                    OFFSET -2.48547 -0.328903 0.83742
                  }
                }
              }
              JOINT rRing1
              {
                OFFSET -8.82822 0.546677 1.51678
                CHANNELS 3 Zrotation Xrotation Yrotation
                JOINT rRing2
                {
                  OFFSET -2.60934 -0.819778 -0.0198488
                  CHANNELS 3 Zrotation Xrotation Yrotation
                  End Site
                  {
                    OFFSET -2.33842 -0.294052 0.168128
                  }
                }
              }
              JOINT rPinky1
              {
                OFFSET -8.27202 -0.0477905 -0.4584
                CHANNELS 3 Zrotation Xrotation Yrotation
                JOINT rPinky2
                {
                  OFFSET -1.82734 -0.647385 -0.700984
                  CHANNELS 3 Zrotation Xrotation Yrotation
                  End Site
                  {
                    OFFSET -1.69225 -0.51767 -0.607171
                  }
                }
              }
            }
          }
        }
      }
      JOINT lCollar
      {
        OFFSET 2.68224 19.2634 -4.8768
        CHANNELS 3 Zrotation Xrotation Yrotation
        JOINT lShldr
        {
          OFFSET 8.77824 -1.95073 1.46304
          CHANNELS 3 Zrotation Xrotation Yrotation
          JOINT lForeArm
          {
            OFFSET 28.1742 -1.7115 0.48768
            CHANNELS 3 Zrotation Xrotation Yrotation
            JOINT lHand
            {
              OFFSET 22.5879 0.773209 7.07136
              CHANNELS 3 Zrotation Xrotation Yrotation
              JOINT lThumb1
              {
                OFFSET 1.2192 -0.487915 3.41376
                CHANNELS 3 Zrotation Xrotation Yrotation
                JOINT lThumb2
                {
                  OFFSET 3.37035 -0.52449 3.41376
                  CHANNELS 3 Zrotation Xrotation Yrotation
                  End Site
                  {
                    OFFSET 1.78271 -1.18214 1.43049
                  }
                }
              }
              JOINT lIndex1
              {
                OFFSET 7.75947 0.938293 5.60832
                CHANNELS 3 Zrotation Xrotation Yrotation
                JOINT lIndex2
                {
                  OFFSET 2.54057 -0.884171 1.56538
                  CHANNELS 3 Zrotation Xrotation Yrotation
                  End Site
                  {
                    OFFSET 1.62519 -0.234802 1.16502
                  }
                }
              }
              JOINT lMid1
              {
                OFFSET 8.24714 1.18213 3.41376
                CHANNELS 3 Zrotation Xrotation Yrotation
                JOINT lMid2
                {
                  OFFSET 3.10165 -0.590103 1.0647
                  CHANNELS 3 Zrotation Xrotation Yrotation
                  End Site
                  {
                    OFFSET 2.48547 -0.328903 0.83742
                  }
                }
              }
              JOINT lRing1
              {
                OFFSET 8.82822 0.546677 1.51678
                CHANNELS 3 Zrotation Xrotation Yrotation
                JOINT lRing2
                {
                  OFFSET 2.60934 -0.819778 -0.0198488
                  CHANNELS 3 Zrotation Xrotation Yrotation
                  End Site
                  {
                    OFFSET 2.33842 -0.294052 0.168128
                  }
                }
              }
              JOINT lPinky1
              {
                OFFSET 8.27202 -0.0477905 -0.4584
                CHANNELS 3 Zrotation Xrotation Yrotation
                JOINT lPinky2
                {
                  OFFSET 1.82734 -0.647385 -0.700984
                  CHANNELS 3 Zrotation Xrotation Yrotation
                  End Site
                  {
                    OFFSET 1.69225 -0.51767 -0.607171
                  }
                }
              }
            }
          }
        }
      }
    }
  }
  JOINT rButtock
  {
    OFFSET -8.77824 4.35084 1.2192
    CHANNELS 3 Zrotation Xrotation Yrotation
    JOINT rThigh
    {
      OFFSET 0 -1.70687 -2.19456
      CHANNELS 3 Zrotation Xrotation Yrotation
      JOINT rShin
      {
        OFFSET 0 -36.8199 0.73152
        CHANNELS 3 Zrotation Xrotation Yrotation
        JOINT rFoot
        {
          OFFSET 0.73152 -45.1104 -5.12064
          CHANNELS 3 Zrotation Xrotation Yrotation
          End Site
          {
            OFFSET -1.1221 -3.69964 12.103
          }
        }
      }
    }
  }
  JOINT lButtock
  {
    OFFSET 8.77824 4.35084 1.2192
    CHANNELS 3 Zrotation Xrotation Yrotation
    JOINT lThigh
    {
      OFFSET 0 -1.70687 -2.19456
      CHANNELS 3 Zrotation Xrotation Yrotation
      JOINT lShin
      {
        OFFSET 0 -36.8199 0.73152
        CHANNELS 3 Zrotation Xrotation Yrotation
        JOINT lFoot
        {
          OFFSET -0.73152 -45.1104 -5.12064
          CHANNELS 3 Zrotation Xrotation Yrotation
          End Site
          {
            OFFSET 1.1221 -3.69964 12.103
          }
        }
      }
    }
  }
}
MOTION
Frames:	10
Frame Time:	0.00833333
0.0 0.0 0.0 0.0 0.0 0.0 0.0 0.0 0.0 0.0 0.0 0.0 0.0 0.0 0.0 0.0 0.0 0.0 0.0 0.0 0.0 0.0 0.0 0.0 0.0 0.0 0.0 0.0 0.0 0.0 0.0 0.0 0.0 0.0 0.0 0.0 0.0 0.0 0.0 0.0 0.0 0.0 0.0 0.0 0.0 0.0 0.0 0.0 0.0 0.0 0.0 0.0 0.0 0.0 0.0 0.0 0.0 0.0 0.0 0.0 0.0 0.0 0.0 0.0 0.0 0.0 0.0 0.0 0.0 0.0 0.0 0.0 0.0 0.0 0.0 0.0 0.0 0.0 0.0 0.0 0.0 0.0 0.0 0.0 0.0 0.0 0.0 0.0 0.0 0.0 0.0 0.0 0.0 0.0 0.0 0.0 0.0 0.0 0.0 0.0 0.0 0.0 0.0 0.0 0.0 0.0 0.0 0.0 0.0 0.0 0.0 0.0 0.0 0.0 0.0 0.0 0.0 0.0 0.0 0.0 0.0 0.0 0.0 0.0 0.0 0.0 0.0 0.0 0.0 0.0 0.0 0.0
-68.8195 84.2255 -2.21821 -0.0 -0.0 -0.0 -0.0 -4.771896 -180.0 0.0 -4.771896 -180.0 -7.906765 12.08614 -91.106352 11.93363 8.136982 91.092829 -0.0 0.0 -0.0 -0.0 0.0 -0.0 -155.54842 -3.80427 161.899949 -152.277222 6.492045 161.213618 -176.818178 11.433491 144.522303 169.312926 -20.223217 143.322275 -5.433768 5.264911 1.077842 -37.052464 24.351617 35.471802 88.792192 -75.499035 40.049684 -170.114231 -30.7449 103.224501 -154.142656 11.63468 139.428942 -164.123426 -17.680395 145.008544 -145.099706 -1.521107 -178.650165 21.121801 5.77256 -8.008256 -141.69975 1.898697 -138.684874 -78.77839 -53.033286 -80.950272 155.460052 -3.227798 -161.777534 0.652215 44.090615 -27.027874 -21.688064 7.933024 24.65396 162.303389 51.344873 -136.674889 0.441471 0.435329 -0.069465 -10.722023 -15.223622 8.01485 124.893263 21.79101 -105.251057 11.67876 45.375769 -1.514414 170.281554 -36.72314 -145.341052 5.823801 26.187539 -8.276627 -0.004561 0.876454 -0.275323 159.209652 43.459415 -163.549683 -26.753989 79.922684 -10.286768 11.257691 -22.667812 13.349121 -0.0 0.0 -0.0 -0.0 -0.0 -0.0 4.304493 0.86717 39.030537 51.159233 -50.862044 -36.786167 -0.0 0.0 -0.0 -0.0 -0.0 -0.0 -4.304493 0.86717 -39.030537 -51.159233 -50.862044 36.786167
-69.3632 84.1958 -2.77687 -0.0 -0.0 -0.0 -0.0 -4.771896 -180.0 -0.0 -4.771896 180.0 -8.133567 10.422116 -81.502261 11.496437 6.51512 81.58876 -0.0 0.0 -0.0 -0.0 0.0 -0.0 -158.417022 -29.366393 166.793865 22.471356 -23.076744 19.872015 -169.319283 -12.933626 177.924403 4.317093 -13.339134 0.964966 93.028426 -51.083891 40.500925 -150.873013 -0.208829 113.521687 -140.164771 2.326489 115.87806 -2.99756 39.108946 -0.950376 -160.673322 -6.667841 143.245105 -164.347845 -17.861718 143.920576 -71.925376 72.974006 89.771887 -7.237028 -42.436291 -25.656029 10.837793 35.844702 9.281401 44.293151 80.499674 -10.397663 155.460052 -3.227798 -161.777534 -10.644538 22.865226 -19.247031 48.316781 -78.314501 80.87967 -146.029549 -56.262179 -126.683623 171.706035 -9.388422 -89.948992 149.624265 5.209316 -77.402448 0.327682 0.529888 -0.186114 7.705344 10.282444 -2.089798 153.32078 13.628946 -138.862343 -5.774274 1.673403 0.646594 72.757246 -72.143382 89.772159 151.288251 -3.092352 -166.350586 -0.098846 0.258289 -0.091255 4.736654 -11.775355 4.166441 -0.0 0.0 -0.0 -0.0 -0.0 -0.0 -3.608266 1.750949 -35.499358 93.839643 12.598144 -12.971954 -0.0 0.0 -0.0 -0.0 -0.0 -0.0 3.608266 1.750949 35.499358 -93.839643 12.598144 12.971954
-69.867 84.1347 -3.23185 -0.0 -0.0 -0.0 -0.0 0.0 -0.0 0.0 -0.0 0.0 1.623142 -0.189429 9.30754 -1.571179 0.449346 -9.298695 -0.0 -0.0 0.0 -0.0 -0.0 0.0 0.163072 -0.990049 -0.218539 -85.847096 -87.674643 -90.167425 2.940274 76.860816 0.572474 -4.471558 14.187808 0.068508 -171.706035 -9.388422 89.948992 32.581659 -65.543768 26.586016 -0.327682 0.529888 0.186114 -168.719107 -7.214459 109.555268 -158.521826 -0.192208 142.144949 5.463956 2.948572 0.329139 -75.673382 -72.116249 -92.828895 14.762588 0.785263 5.828533 -126.972514 -26.391453 -124.682081 3.732699 -3.354563 -0.969514 158.417022 -29.366393 -166.793865 -19.890712 -16.626258 -19.413227 -96.039759 73.523851 102.566182 66.066843 72.881124 -47.971334 12.926332 12.051571 -3.310159 139.231544 -42.595616 -111.512309 93.64085 40.181938 -78.833122 161.644888 -9.274676 -124.627171 36.036059 51.723116 -29.832321 -1.598346 1.111375 2.463468 145.122708 1.121164 179.480531 -12.536629 -44.270047 18.379125 150.032855 28.966435 145.934982 25.769109 -40.987915 29.29112 -180.0 75.749642 -0.0 -180.0 73.473292 -180.0 -3.230025 -2.621584 -151.530442 -167.988512 -32.69358 43.7436 -180.0 75.749642 -0.0 -180.0 73.473292 -180.0 3.230025 -2.621584 151.530442 167.988512 -32.69358 -43.7436
-70.3012 84.0945 -3.65236 -0.0 0.0 -0.0 -0.0 -4.771896 -180.0 0.0 -4.771896 -180.0 10.50515 4.498364 68.886613 -7.991713 8.18131 -68.727902 0.0 0.0 0.0 0.0 0.0 0.0 -155.417258 -2.951435 161.718542 -0.568189 44.106012 26.965668 -162.392995 -5.904462 169.477735 20.845795 -47.152206 10.946158 71.831195 -48.263725 25.791675 -150.013875 -79.741234 162.274817 60.461659 -70.523647 15.71111 -177.669229 -34.944002 100.037763 -36.036059 51.723116 29.832321 172.070123 -64.570254 139.139894 0.004873 1.771387 0.556475 -0.12481 -0.163571 -0.356559 12.252484 41.424931 10.280249 74.670179 84.317312 -38.910743 155.417258 -2.951435 -161.718542 0.568189 44.106012 -26.965668 163.323727 1.710045 -169.694568 -16.101969 -40.285943 -7.409749 0.491581 0.484673 -0.077556 140.966228 -46.732976 -119.629443 69.68169 43.292548 -57.342528 163.759027 -6.013655 -122.600568 36.036059 51.723116 -29.832321 172.858817 -34.503675 -146.994389 0.000142 -0.018533 0.005823 0.952574 11.167596 -1.507028 -1.134951 3.04054 -1.043633 96.495137 -51.96921 93.300253 -0.0 0.0 -0.0 -0.0 -2.27635 -180.0 -6.880793 -5.921355 -107.859822 -11.465574 25.060334 -64.504817 -0.0 0.0 -0.0 -0.0 -2.27635 -180.0 6.880793 -5.921355 107.859822 11.465574 25.060334 64.504817
-70.7086 84.0574 -3.99227 -0.0 -0.0 -0.0 -0.0 0.0 -0.0 0.0 -0.0 0.0 1.623142 -0.189429 9.30754 -1.571179 0.449346 -9.298695 -0.0 -0.0 0.0 -0.0 -0.0 0.0 0.163072 -0.990049 -0.218539 -171.206566 -63.363865 -176.619999 168.730859 82.725621 -165.650279 -6.602662 20.57952 0.486919 -103.199394 36.330979 60.111426 -137.337267 -19.579513 75.629686 -138.493513 4.896353 114.8648 -19.794222 52.417326 12.700359 -17.259951 35.487311 12.859704 -47.760692 61.842041 38.834652 -0.014868 -1.323148 -0.415899 0.075368 -62.64356 -8.526583 -23.391137 -36.34947 -22.493225 27.524018 81.691135 8.168792 158.417022 -29.366393 -166.793865 -19.890712 -16.626258 -19.413227 -96.039759 73.523851 102.566182 66.066843 72.881124 -47.971334 12.926332 12.051571 -3.310159 139.231544 -42.595616 -111.512309 93.64085 40.181938 -78.833122 170.750769 -32.936823 -124.267987 36.036059 51.723116 -29.832321 -1.598346 1.111375 2.463468 145.122708 1.121372 179.480596 -22.278068 29.070737 5.946231 1.203484 -3.047547 1.116064 22.00696 -37.557884 20.381827 -180.0 75.749642 -0.0 -180.0 73.473292 -180.0 -3.818269 -2.872352 -145.985039 55.45762 -47.175368 -32.094048 -180.0 75.749642 -0.0 -180.0 73.473292 -180.0 3.818269 -2.872352 145.985039 -55.45762 -47.175368 32.094048
-71.0776 84.0498 -4.34747 -0.0 0.0 -0.0 -0.0 -4.771896 -180.0 -0.0 -4.771896 180.0 -2.189902 0.70575 -13.10212 2.292863 -0.190556 13.119422 0.0 -0.0 -0.0 0.0 -0.0 -0.0 -142.973735 39.431617 147.390037 -151.976127 -2.301811 170.953719 13.587624 1.656479 -1.451897 -17.169925 44.786155 5.479189 1.590029 -1.575931 -0.222909 -51.188965 29.287115 45.695394 -140.763228 1.380556 116.229033 169.330824 -66.59921 103.161952 -125.644075 49.839986 115.274123 -3.311619 23.95012 2.351418 -145.099691 -1.522044 -178.64987 -140.291155 -34.212135 -173.61026 -146.184456 15.332341 -142.71147 -153.210168 36.809054 -145.86424 155.417258 -2.951435 -161.718542 159.644303 -17.676092 -162.174913 -175.057209 9.524787 -147.036153 -177.920833 5.898183 -145.340659 -0.567845 -0.561452 0.084526 -25.250225 -42.470629 17.041571 46.208543 39.652969 -36.318179 -0.045255 3.276239 10.207409 -14.567553 -44.052929 2.825371 165.433808 -3.962501 -140.931119 145.121957 1.974539 179.748654 -22.617578 39.822426 4.959679 -7.928213 24.811638 -7.002569 141.017428 -11.754045 135.071983 -0.0 0.0 -0.0 -0.0 -0.0 -0.0 7.291581 4.831253 83.275504 -5.592904 1.475848 -84.841974 -0.0 0.0 -0.0 -0.0 -0.0 -0.0 -7.291581 4.831253 -83.275504 5.592904 1.475848 84.841974
-71.4479 84.0342 -4.69303 -0.0 0.0 -0.0 -0.0 -4.771896 -180.0 0.0 -4.771896 -180.0 12.037091 11.003981 107.450631 -6.863102 14.769388 -107.723792 -0.0 -0.0 0.0 -0.0 -0.0 0.0 -155.504155 -3.514523 161.838528 98.113498 -75.898646 75.658498 16.722074 77.815031 -47.290924 172.947965 -9.797512 144.628358 -177.936374 -15.50572 89.547746 59.967843 -71.669791 45.449778 -27.608968 30.765951 20.255213 79.652677 -67.967607 38.595755 6.533059 -20.414937 -2.717988 -10.723787 25.450962 7.129045 -70.641094 72.965227 88.425717 5.544205 0.150155 -14.802781 -156.381711 53.734251 -150.117957 -162.776669 54.714705 -144.379091 159.220516 -48.028485 -170.415257 111.863804 60.268802 -121.353402 -173.792176 -30.348894 -140.596018 -177.248405 3.744724 -145.323503 169.319662 -7.000857 -89.921973 -45.995244 -66.203184 -36.378315 46.208543 39.652969 -36.318179 -170.666104 -47.529441 -114.586627 36.036059 51.723116 -29.832321 178.342506 -49.497821 -145.251144 -0.004873 1.771387 -0.556475 3.34078 29.380309 -4.294391 137.37807 -8.61869 134.657906 92.374811 -50.944275 94.300119 -0.0 0.0 -0.0 -0.0 -0.0 -0.0 7.081855 4.181059 77.332942 -151.579957 -27.88746 98.276681 -0.0 0.0 -0.0 -0.0 -0.0 -0.0 -7.081855 4.181059 -77.332942 151.579957 -27.88746 -98.276681
-71.6865 83.9859 -5.03383 -0.0 0.0 -0.0 -0.0 -4.771896 -180.0 0.0 -4.771896 -180.0 10.50515 4.498364 68.886613 -7.991713 8.18131 -68.727902 0.0 0.0 0.0 0.0 0.0 0.0 -155.417258 -2.951435 161.718542 98.127956 -75.993146 75.587594 16.348852 78.034778 -46.950748 172.815986 -10.197375 144.59171 -176.59845 -14.213085 89.690967 -77.899605 8.121477 24.787695 -155.193415 -24.299992 122.142835 -2.595386 37.966531 4.429951 -36.036059 51.723116 29.832321 -7.315338 26.55537 3.155968 0.004875 1.770451 0.556181 -5.11078 38.213858 6.40757 -143.937873 8.265083 -140.720099 -24.346042 -41.364492 -28.105554 155.417258 -2.951435 -161.718542 -98.127956 -75.993146 -75.587594 -164.560849 7.417479 -166.92887 121.048571 72.413177 -100.276587 166.631339 -4.304864 -89.77151 -16.327076 -58.406034 -18.469181 108.427673 34.160977 -91.742903 87.406451 62.704571 -68.188374 170.281554 -36.72314 -145.341052 12.368246 36.180343 -13.121174 0.000473 -0.060845 0.019116 -0.023149 -0.254885 0.020549 113.300109 -39.665195 111.319911 144.195644 8.142342 143.608794 -0.0 0.0 -0.0 -0.0 -2.27635 -180.0 -6.880793 -5.921355 -107.859822 -11.465574 25.060334 -64.504817 -0.0 0.0 -0.0 -0.0 -2.27635 -180.0 6.880793 -5.921355 107.859822 11.465574 25.060334 64.504817
-72.0872 83.9851 -5.12932 -0.0 0.0 -0.0 -0.0 -4.771896 -180.0 0.0 -4.771896 -180.0 10.50515 4.498364 68.886613 -7.991713 8.18131 -68.727902 0.0 0.0 0.0 0.0 0.0 0.0 -155.417258 -2.951435 161.718542 98.127956 -75.993146 75.587594 16.348852 78.034778 -46.950748 172.815986 -10.197375 144.59171 -176.59845 -14.213085 89.690967 -77.899605 8.121477 24.787695 -155.193415 -24.299992 122.142835 -2.595386 37.966531 4.429951 -36.036059 51.723116 29.832321 -7.315338 26.55537 3.155968 0.004875 1.770451 0.556181 -2.196773 21.713801 2.828399 -143.937873 8.265083 -140.720099 -24.346042 -41.364492 -28.105554 155.417258 -2.951435 -161.718542 -98.127956 -75.993146 -75.587594 -164.560849 7.417479 -166.92887 121.048571 72.413177 -100.276587 166.631339 -4.304864 -89.77151 -16.327076 -58.406034 -18.469181 108.427673 34.160977 -91.742903 87.406451 62.704571 -68.188374 170.281554 -36.72314 -145.341052 12.368246 36.180343 -13.121174 0.000473 -0.060845 0.019116 166.44215 -13.395182 -173.362667 113.300109 -39.665195 111.319911 144.195644 8.142342 143.608794 -0.0 0.0 -0.0 -0.0 -2.27635 -180.0 -6.880793 -5.921355 -107.859822 -11.465574 25.060334 -64.504817 -0.0 0.0 -0.0 -0.0 -2.27635 -180.0 6.880793 -5.921355 107.859822 11.465574 25.060334 64.504817
